<svg xmlns="http://www.w3.org/2000/svg" width="70" height="48" viewBox="0 0 70 48" fill="none">
<path fill-rule="evenodd" clip-rule="evenodd" d="M24.7121 37.3124V39.111V40.9096H23.9093V40.4728C23.6546 40.7967 23.2682 41 22.743 41C21.7077 41 20.896 40.2101 20.896 39.111C20.896 38.0127 21.7077 37.222 22.743 37.222C23.2682 37.222 23.6546 37.4253 23.9093 37.7491V37.3124H24.7121ZM22.8429 37.9593C22.148 37.9593 21.7227 38.4787 21.7227 39.111C21.7227 39.7432 22.148 40.2626 22.8429 40.2626C23.5069 40.2626 23.9552 39.7656 23.9552 39.111C23.9552 38.4563 23.5069 37.9593 22.8429 37.9593ZM51.8421 39.111C51.8421 38.4787 52.2674 37.9593 52.9623 37.9593C53.6272 37.9593 54.0746 38.4563 54.0746 39.111C54.0746 39.7656 53.6272 40.2626 52.9623 40.2626C52.2674 40.2626 51.8421 39.7432 51.8421 39.111ZM54.8323 35.8679V39.111V40.9096H54.0286V40.4728C53.774 40.7967 53.3876 41 52.8624 41C51.827 41 51.0154 40.2101 51.0154 39.111C51.0154 38.0127 51.827 37.222 52.8624 37.222C53.3876 37.222 53.774 37.4253 54.0286 37.7491V35.8679H54.8323ZM34.6776 37.9223C35.1948 37.9223 35.5273 38.2384 35.6122 38.7949H33.6962C33.7819 38.2755 34.1055 37.9223 34.6776 37.9223ZM32.8544 39.111C32.8544 37.9895 33.6113 37.222 34.6935 37.222C35.728 37.222 36.4389 37.9895 36.4468 39.111C36.4468 39.2161 36.4389 39.3143 36.4309 39.4116H33.6891C33.8049 40.0594 34.2762 40.2928 34.7934 40.2928C35.1639 40.2928 35.5582 40.1567 35.8677 39.9164L36.2611 40.4961C35.8129 40.8648 35.3036 41 34.7474 41C33.6422 41 32.8544 40.2549 32.8544 39.111ZM44.3876 39.111C44.3876 38.4787 44.8129 37.9593 45.5079 37.9593C46.1719 37.9593 46.6202 38.4563 46.6202 39.111C46.6202 39.7656 46.1719 40.2626 45.5079 40.2626C44.8129 40.2626 44.3876 39.7432 44.3876 39.111ZM47.377 37.3124V39.111V40.9096H46.5742V40.4728C46.3186 40.7967 45.9331 41 45.4079 41C44.3726 41 43.5609 40.2101 43.5609 39.111C43.5609 38.0127 44.3726 37.222 45.4079 37.222C45.9331 37.222 46.3186 37.4253 46.5742 37.7491V37.3124H47.377ZM39.8535 39.111C39.8535 40.2024 40.6333 41 41.8234 41C42.3796 41 42.7501 40.8794 43.1515 40.571L42.766 39.9388C42.4645 40.1498 42.1479 40.2627 41.7996 40.2627C41.1585 40.2549 40.6873 39.8035 40.6873 39.111C40.6873 38.4184 41.1585 37.9671 41.7996 37.9593C42.1479 37.9593 42.4645 38.0722 42.766 38.2832L43.1515 37.6509C42.7501 37.3426 42.3796 37.222 41.8234 37.222C40.6333 37.222 39.8535 38.0196 39.8535 39.111ZM49.231 37.7492C49.4397 37.4331 49.7412 37.222 50.2045 37.222C50.3672 37.222 50.5988 37.2522 50.7765 37.3202L50.529 38.0576C50.3592 37.9895 50.1894 37.9671 50.0267 37.9671C49.5015 37.9671 49.2389 38.2979 49.2389 38.8931V40.9096H48.4352V37.3125H49.231V37.7492ZM28.6829 37.5984C28.2965 37.3503 27.7642 37.222 27.1771 37.222C26.2417 37.222 25.6395 37.6587 25.6395 38.3736C25.6395 38.9602 26.0878 39.322 26.9136 39.4349L27.2929 39.4874C27.7333 39.5477 27.941 39.6605 27.941 39.8638C27.941 40.1421 27.6475 40.3006 27.0993 40.3006C26.5432 40.3006 26.1417 40.1274 25.8712 39.9241L25.4928 40.5331C25.9331 40.8493 26.4892 41 27.0914 41C28.1577 41 28.7757 40.5107 28.7757 39.8259C28.7757 39.1937 28.2894 38.8629 27.4857 38.7501L27.1073 38.6967C26.7598 38.6519 26.4813 38.5847 26.4813 38.3435C26.4813 38.0799 26.7439 37.9223 27.1842 37.9223C27.6555 37.9223 28.1117 38.0954 28.3354 38.2307L28.6829 37.5984ZM38.0693 37.7492C38.2771 37.4331 38.5786 37.222 39.0419 37.222C39.2046 37.222 39.4362 37.2522 39.6139 37.3202L39.3664 38.0576C39.1966 37.9895 39.0268 37.9671 38.8641 37.9671C38.3389 37.9671 38.0763 38.2979 38.0763 38.8931V40.9096H37.2735V37.3125H38.0693V37.7492ZM32.1903 37.3124H30.8773V36.221H30.0656V37.3124H29.3167V38.0274H30.0656V39.6683C30.0656 40.503 30.3981 41 31.3477 41C31.696 41 32.0974 40.8949 32.3521 40.7218L32.1204 40.0516C31.8808 40.1869 31.6182 40.2549 31.4095 40.2549C31.0081 40.2549 30.8773 40.0137 30.8773 39.6528V38.0274H32.1903V37.3124ZM20.186 38.6519V40.9096H19.3743V38.9078C19.3743 38.2979 19.1117 37.9594 18.5635 37.9594C18.0303 37.9594 17.6599 38.291 17.6599 38.9155V40.9096H16.8482V38.9078C16.8482 38.2979 16.5785 37.9594 16.0454 37.9594C15.4963 37.9594 15.1409 38.291 15.1409 38.9155V40.9096H14.3301V37.3125H15.1338V37.7561C15.4353 37.3349 15.8208 37.222 16.2151 37.222C16.7792 37.222 17.1807 37.4632 17.4353 37.862C17.7757 37.3573 18.262 37.2143 18.7333 37.222C19.6298 37.2298 20.186 37.8017 20.186 38.6519Z" fill="white"/>
<path d="M40.584 31.2002H28.416V9.89648H40.584V31.2002Z" fill="#FF5F00"/>
<path d="M29.1883 20.549C29.1883 16.2274 31.2653 12.3779 34.4996 9.89709C32.1344 8.08302 29.1494 7.00026 25.9054 7.00026C18.2255 7.00026 12 13.0661 12 20.549C12 28.0318 18.2255 34.0977 25.9054 34.0977C29.1494 34.0977 32.1344 33.0149 34.4996 31.2008C31.2653 28.72 29.1883 24.8705 29.1883 20.549Z" fill="#EB001B"/>
<path d="M57.0004 20.549C57.0004 28.0318 50.775 34.0977 43.095 34.0977C39.851 34.0977 36.866 33.0149 34.5 31.2008C37.7352 28.72 39.8121 24.8705 39.8121 20.549C39.8121 16.2274 37.7352 12.3779 34.5 9.89709C36.866 8.08302 39.851 7.00026 43.095 7.00026C50.775 7.00026 57.0004 13.0661 57.0004 20.549Z" fill="#F79E1B"/>
</svg>