<svg xmlns="http://www.w3.org/2000/svg" width="70" height="48" viewBox="0 0 70 48" fill="none">
<path d="M56.0002 16H45.7002C46.3002 19.4 49.6002 22.6 53.2002 22.6H61.4002C61.5002 22.3 61.5002 21.8 61.5002 21.5C61.5002 18.5 59.0002 16 56.0002 16Z" fill="url(#paint0_linear)"/>
<path d="M46.5996 23.2002V31.5002H51.5996V27.1002H55.9996C58.3996 27.1002 60.4996 25.4002 61.1996 23.2002H46.5996Z" fill="#4FAD50"/>
<path d="M29 16V31.4H33.4C33.4 31.4 34.5 31.4 35.1 30.3C38.1 24.4 39 22.6 39 22.6H39.6V31.4H44.6V16H40.2C40.2 16 39.1 16.1 38.5 17.1C36 22.2 34.6 24.8 34.6 24.8H34V16H29Z" fill="#4FAD50"/>
<path d="M8 31.5001V16.1001H13C13 16.1001 14.4 16.1001 15.2 18.3001C17.2 24.1001 17.4 24.9001 17.4 24.9001C17.4 24.9001 17.8 23.5001 19.6 18.3001C20.4 16.1001 21.8 16.1001 21.8 16.1001H26.8V31.5001H21.8V23.2001H21.2L18.4 31.5001H16.2L13.4 23.2001H12.8V31.5001H8Z" fill="#4FAD50"/>
<defs>
<linearGradient id="paint0_linear" x1="45.6824" y1="19.3473" x2="61.4648" y2="19.3473" gradientUnits="userSpaceOnUse">
<stop stop-color="#27B1E6"/>
<stop offset="1" stop-color="#148ACA"/>
</linearGradient>
</defs>
</svg>