<svg width="48" height="48" viewBox="0 0 48 48" xmlns="http://www.w3.org/2000/svg">
    <path fill-rule="evenodd" clip-rule="evenodd" d="M37.4142 10.5858C38.1953 11.3668 38.1953 12.6332 37.4142 13.4142L13.4142 37.4142C12.6332 38.1953 11.3668 38.1953 10.5858 37.4142C9.80474 36.6332 9.80474 35.3668 10.5858 34.5858L34.5858 10.5858C35.3668 9.80474 36.6332 9.80474 37.4142 10.5858Z" />
    <path fill-rule="evenodd" clip-rule="evenodd" d="M10.5858 10.5858C9.80474 11.3668 9.80474 12.6332 10.5858 13.4142L34.5858 37.4142C35.3668 38.1953 36.6332 38.1953 37.4142 37.4142C38.1953 36.6332 38.1953 35.3668 37.4142 34.5858L13.4142 10.5858C12.6332 9.80474 11.3668 9.80474 10.5858 10.5858Z" />
</svg>
